<?xml version="1.0" encoding="UTF-8"?>
<svg width="24px" height="24px" viewBox="0 0 24 24" version="1.1" xmlns="http://www.w3.org/2000/svg" xmlns:xlink="http://www.w3.org/1999/xlink">
    <title>Icon / Block</title>
    <g id="Icon-/-Block" stroke="none" stroke-width="1" fill="none" fill-rule="evenodd">
        <rect fill="#393939" x="0" y="0" width="24" height="24"></rect>
        <path d="M12,2.83333333 C17.0626102,2.83333333 21.1666667,6.93738979 21.1666667,12 C21.1666667,17.0626102 17.0626102,21.1666667 12,21.1666667 C6.93738979,21.1666667 2.83333333,17.0626102 2.83333333,12 C2.83333333,6.93738979 6.93738979,2.83333333 12,2.83333333 Z M15.6666667,10.7777778 L8.33333333,10.7777778 C7.82707231,10.7777778 7.41666667,11.1881834 7.41666667,11.6944444 L7.41666667,12.3055556 C7.41666667,12.8118166 7.82707231,13.2222222 8.33333333,13.2222222 L15.6666667,13.2222222 C16.1729277,13.2222222 16.5833333,12.8118166 16.5833333,12.3055556 L16.5833333,11.6944444 C16.5833333,11.1881834 16.1729277,10.7777778 15.6666667,10.7777778 Z" id="Shape" fill="#FFFFFF"></path>
    </g>
</svg>