<?xml version="1.0" encoding="UTF-8"?>
<svg width="24px" height="24px" viewBox="0 0 24 24" version="1.1" xmlns="http://www.w3.org/2000/svg" xmlns:xlink="http://www.w3.org/1999/xlink">
    <title>Icon / Call</title>
    <g id="Icon-/-Call" stroke="none" stroke-width="1" fill="none" fill-rule="evenodd">
        <rect fill="#393939" x="0" y="0" width="24" height="24"></rect>
        <path d="M19.0353429,15.1838063 L16.5609182,14.9012917 C15.7861856,14.7710103 14.7245995,15.2590463 13.37616,16.3653997 C13.3147826,16.415758 13.1417364,16.5334254 12.9502789,16.5403267 C12.7642661,16.5470318 12.559839,16.4442199 12.493322,16.4078584 C10.162354,15.1336343 8.73412113,13.6872026 7.46690234,11.3059912 C7.43529146,11.2465916 7.35597588,11.0862659 7.38010862,10.9375511 C7.40218584,10.8015032 7.52448092,10.6762979 7.56736205,10.6237276 C8.59473292,9.36421903 9.10841835,8.29939904 9.10841835,7.42926768 L8.82590529,4.97431324 C8.70900333,3.99038309 7.8809478,3.25 6.88728116,3.25 L5.2019446,3.25 C4.10111783,3.25 3.18538583,4.16573697 3.25357864,5.26656972 C3.76989562,13.5861376 10.4235654,20.2301016 18.7333462,20.7464213 C19.834173,20.8146145 20.75,19.8988775 20.75,18.7980448 L20.75,17.1126991 C20.7596468,16.1287689 20.0192677,15.3007089 19.0353429,15.1838063 Z" id="Path" fill="#FFFFFF" fill-rule="nonzero"></path>
    </g>
</svg>