<?xml version="1.0" encoding="UTF-8"?>
<svg width="24px" height="24px" viewBox="0 0 24 24" version="1.1" xmlns="http://www.w3.org/2000/svg" xmlns:xlink="http://www.w3.org/1999/xlink">
    <title>Icon / Gift</title>
    <g id="Icon-/-Gift" stroke="none" stroke-width="1" fill="none" fill-rule="evenodd">
        <rect fill="#393939" x="0" y="0" width="24" height="24"></rect>
        <path d="M11.1570747,13.8429406 L11.1570747,21.1582492 L7.50635241,21.1582492 C6.2654659,21.1582492 5.25952862,20.1523119 5.25952862,18.9114254 L5.25952862,13.8429406 L11.1570747,13.8429406 Z M18.7406813,13.8290457 L18.7404714,18.9114254 C18.7404714,20.1523119 17.7345341,21.1582492 16.4936476,21.1582492 L12.8421926,21.1582492 L12.8421926,13.8429406 L18.6000449,13.8431335 C18.6482103,13.8431335 18.695243,13.8382837 18.7406813,13.8290457 Z M14.7267684,3.20808081 C15.3076041,3.20808081 15.8324946,3.33032918 16.30144,3.57482592 C16.7703853,3.81932267 17.1442703,4.15817092 17.4230948,4.59137069 C17.7019193,5.02457045 17.8413315,5.51905877 17.8413315,6.07483566 C17.8413315,6.4535567 17.7682156,6.80172739 17.6219837,7.11934773 C17.4919999,7.40167692 17.3192942,7.65207495 17.1038668,7.87054181 L17.0374108,7.93474747 L19.3021773,7.93477091 C19.9226206,7.93477091 20.4255892,8.43773954 20.4255892,9.0581828 L20.4255892,11.3129686 C20.4255892,11.9334119 19.9226206,12.4363805 19.3021773,12.4363805 L18.7404714,12.4362335 L18.7406813,12.4504684 C18.695243,12.4412304 18.6482103,12.4363805 18.6000449,12.4363805 L12.8421926,12.4362335 L12.8420774,7.95074747 L11.1603577,7.95097011 L11.1603577,6.72928478 C11.1603577,6.11799596 10.9772756,5.63078712 10.6111115,5.26765826 C10.2449473,4.9045294 9.80359697,4.72296498 9.28706048,4.72296498 C8.79994572,4.72296498 8.40316639,4.85343212 8.09672249,5.11436641 C7.7902786,5.3753007 7.63705665,5.7361283 7.63705665,6.19684921 C7.63705665,6.66771443 7.82717754,7.07778422 8.20741932,7.42705858 C8.52141232,7.71547954 8.9403689,7.88481553 9.46428905,7.93506656 L11.1570747,7.93477091 L11.1570747,12.4362335 L4.69782267,12.4363805 C4.07737941,12.4363805 3.57441077,11.9334119 3.57441077,11.3129686 L3.57441077,9.0581828 C3.57441077,8.43773954 4.07737941,7.93477091 4.69782267,7.93477091 L6.84922415,7.93531633 C6.60266586,7.70198475 6.40787593,7.42999522 6.26485437,7.11934773 C6.11862252,6.80172739 6.04550659,6.4535567 6.04550659,6.07483566 C6.04550659,5.51905877 6.18494319,5.02457045 6.46381639,4.59137069 C6.74268959,4.15817092 7.11798716,3.81932267 7.58970909,3.57482592 C8.06143103,3.33032918 8.58493326,3.20808081 9.16021579,3.20808081 C9.7998949,3.20808081 10.3691859,3.37149349 10.8680889,3.69831885 C11.3669918,4.02514422 11.7268722,4.48743844 11.94773,5.08520151 C12.1685878,4.48743844 12.5270312,4.02514422 13.0230602,3.69831885 C13.5190892,3.37149349 14.0869919,3.20808081 14.7267684,3.20808081 Z M14.6082534,4.72296498 C14.0867484,4.72296498 13.6427432,4.9045294 13.2762381,5.26765826 C12.909733,5.63078712 12.8425589,6.11799596 12.8425589,6.72928478 L12.8424108,7.93474747 L14.4225357,7.93506656 C14.9090956,7.88839515 15.3050274,7.73900042 15.6103311,7.48688238 L15.6789804,7.42705858 C16.0589299,7.07778422 16.2489046,6.66771443 16.2489046,6.19684921 C16.2489046,5.7361283 16.0958532,5.3753007 15.7897503,5.11436641 C15.4836474,4.85343212 15.0898151,4.72296498 14.6082534,4.72296498 Z" id="Shape" fill="#FFFFFF" fill-rule="nonzero"></path>
    </g>
</svg>