<?xml version="1.0" encoding="UTF-8"?>
<svg width="24px" height="24px" viewBox="0 0 24 24" version="1.1" xmlns="http://www.w3.org/2000/svg" xmlns:xlink="http://www.w3.org/1999/xlink">
    <title>Icon / Leave</title>
    <g id="Icon-/-Leave" stroke="none" stroke-width="1" fill="none" fill-rule="evenodd">
        <rect fill="#393939" x="0" y="0" width="24" height="24"></rect>
        <path d="M12.3287037,3.57407407 C13.9395342,3.57407407 15.2453704,4.87991022 15.2453704,6.49074074 L15.2453704,7.46296296 C15.2453704,7.99990647 14.8100917,8.43518519 14.2731481,8.43518519 C13.7362046,8.43518519 13.3009259,7.99990647 13.3009259,7.46296296 L13.3009259,6.49074074 C13.3009259,5.95379723 12.8656472,5.51851852 12.3287037,5.51851852 L6.1712963,5.51851852 C5.63435279,5.51851852 5.19907407,5.95379723 5.19907407,6.49074074 L5.19907407,17.5092593 C5.19907407,18.0462028 5.63435279,18.4814815 6.1712963,18.4814815 L12.3287037,18.4814815 C12.8656472,18.4814815 13.3009259,18.0462028 13.3009259,17.5092593 L13.3009259,16.537037 C13.3009259,16.0000935 13.7362046,15.5648148 14.2731481,15.5648148 C14.8100917,15.5648148 15.2453704,16.0000935 15.2453704,16.537037 L15.2453704,17.5092593 C15.2453704,19.1200898 13.9395342,20.4259259 12.3287037,20.4259259 L6.1712963,20.4259259 C4.56046578,20.4259259 3.25462963,19.1200898 3.25462963,17.5092593 L3.25462963,6.49074074 C3.25462963,4.87991022 4.56046578,3.57407407 6.1712963,3.57407407 L12.3287037,3.57407407 Z M19.0450116,7.94494538 L21.9269969,11.1302975 C22.3737252,11.6240499 22.3737252,12.3759501 21.9269969,12.8697025 L19.0450116,16.0550546 C18.6847691,16.4532174 18.0699601,16.4839579 17.6717972,16.1237153 C17.2736344,15.7634728 17.242894,15.1486638 17.6031365,14.7505009 L19.211963,12.9720741 L10.0601852,12.9722222 C9.52324168,12.9722222 9.08796296,12.5369435 9.08796296,12 C9.08796296,11.4630565 9.52324168,11.0277778 10.0601852,11.0277778 L19.211963,11.0277407 L17.6031365,9.24949906 C17.2573037,8.86726276 17.2718007,8.2853653 17.6257828,7.92070553 L17.6717972,7.87628466 C18.0699601,7.51604211 18.6847691,7.54678256 19.0450116,7.94494538 Z" id="Shape" fill="#FFFFFF" fill-rule="nonzero"></path>
    </g>
</svg>