<?xml version="1.0" encoding="UTF-8"?>
<svg width="24px" height="24px" viewBox="0 0 24 24" version="1.1" xmlns="http://www.w3.org/2000/svg" xmlns:xlink="http://www.w3.org/1999/xlink">
    <title>Icon / Live Stream</title>
    <g id="Icon-/-Live-Stream" stroke="none" stroke-width="1" fill="none" fill-rule="evenodd">
        <rect fill="#393939" x="0" y="0" width="24" height="24"></rect>
        <path d="M18.1666667,6.51851852 C18.9613431,6.51851852 19.6055556,7.16273102 19.6055556,7.95740741 L19.6055556,16.0425926 C19.6055556,16.837269 18.9613431,17.4814815 18.1666667,17.4814815 C17.3719903,17.4814815 16.7277778,16.837269 16.7277778,16.0425926 L16.7277778,7.95740741 C16.7277778,7.16273102 17.3719903,6.51851852 18.1666667,6.51851852 Z M5.83333333,6.51851852 C6.62800972,6.51851852 7.27222222,7.16273102 7.27222222,7.95740741 L7.27222222,16.0425926 C7.27222222,16.837269 6.62800972,17.4814815 5.83333333,17.4814815 C5.03865694,17.4814815 4.39444444,16.837269 4.39444444,16.0425926 L4.39444444,7.95740741 C4.39444444,7.16273102 5.03865694,6.51851852 5.83333333,6.51851852 Z M12,3.43518519 C12.7946764,3.43518519 13.4388889,4.07939768 13.4388889,4.87407407 L13.4388889,19.1259259 C13.4388889,19.9206023 12.7946764,20.5648148 12,20.5648148 C11.2053236,20.5648148 10.5611111,19.9206023 10.5611111,19.1259259 L10.5611111,4.87407407 C10.5611111,4.07939768 11.2053236,3.43518519 12,3.43518519 Z" id="Shape" fill="#FFFFFF"></path>
    </g>
</svg>