<?xml version="1.0" encoding="UTF-8"?>
<svg width="24px" height="24px" viewBox="0 0 24 24" version="1.1" xmlns="http://www.w3.org/2000/svg" xmlns:xlink="http://www.w3.org/1999/xlink">
    <title>Icon / Mute</title>
    <g id="Icon-/-Mute" stroke="none" stroke-width="1" fill="none" fill-rule="evenodd">
        <rect fill="#393939" x="0" y="0" width="24" height="24"></rect>
        <path d="M11.9218969,2.52777778 C12.6630586,2.52777778 13.2638889,3.12860807 13.2638889,3.86976979 L13.264019,4.49169983 C16.2319806,5.21606501 18.3195662,7.68121547 18.3195662,10.8053779 L18.3195662,14.9867485 C18.3195662,15.1326245 18.3732713,15.273395 18.4704351,15.3822023 L19.6780557,16.7345356 C20.3415041,17.3815937 19.6679133,18.4908362 18.7306608,18.4908362 L5.26082887,18.4908362 C4.32357641,18.4908362 3.66051652,17.3815937 4.32396489,16.7345356 L5.53158545,15.3822023 C5.6287493,15.273395 5.68245441,15.1326245 5.68245441,14.9867485 L5.68245441,10.8053779 C5.68245441,7.73534431 7.67534082,5.31690593 10.5555701,4.53844668 L10.5555556,3.86976979 C10.5555556,3.15106751 11.1205236,2.5643206 11.8305686,2.52942014 L11.9218969,2.52777778 Z M12.0010103,21.4722222 C13.1594122,21.4722222 14.1071956,20.5584215 14.1071956,19.5246625 L9.894825,19.5246625 C9.894825,20.5584215 10.8320775,21.4722222 12.0010103,21.4722222 Z" id="Shape" fill="#FFFFFF" fill-rule="nonzero"></path>
    </g>
</svg>