<?xml version="1.0" encoding="UTF-8"?>
<svg width="24px" height="24px" viewBox="0 0 24 24" version="1.1" xmlns="http://www.w3.org/2000/svg" xmlns:xlink="http://www.w3.org/1999/xlink">
    <title>Icon / Report</title>
    <g id="Icon-/-Report" stroke="none" stroke-width="1" fill="none" fill-rule="evenodd">
        <rect fill="#393939" x="0" y="0" width="24" height="24"></rect>
        <path d="M12,2.83333333 C17.0626102,2.83333333 21.1666667,6.93738979 21.1666667,12 C21.1666667,17.0626102 17.0626102,21.1666667 12,21.1666667 C6.93738979,21.1666667 2.83333333,17.0626102 2.83333333,12 C2.83333333,6.93738979 6.93738979,2.83333333 12,2.83333333 Z M12,14.4444444 C11.34676,14.4444444 10.8132145,14.9569177 10.7794719,15.6017557 L10.7777778,15.6886491 C10.7777778,16.3636638 11.3249853,16.9108713 12,16.9108713 C12.65324,16.9108713 13.1867855,16.3983981 13.2205281,15.75356 L13.2222222,15.6666667 C13.2222222,14.991652 12.6750147,14.4444444 12,14.4444444 Z M12,7.11111111 C11.4043988,7.11111111 10.9215686,7.59394128 10.9215686,8.18954248 L10.9215686,11.9954464 C10.9215686,12.5910476 11.4043988,13.0738777 12,13.0738777 C12.5956012,13.0738777 13.0784314,12.5910476 13.0784314,11.9954464 L13.0784314,8.18954248 C13.0784314,7.59394128 12.5956012,7.11111111 12,7.11111111 Z" id="Shape" fill="#FFFFFF"></path>
    </g>
</svg>