<?xml version="1.0" encoding="UTF-8"?>
<svg width="24px" height="24px" viewBox="0 0 24 24" version="1.1" xmlns="http://www.w3.org/2000/svg" xmlns:xlink="http://www.w3.org/1999/xlink">
    <title>Icon / Share</title>
    <g id="Icon-/-Share" stroke="none" stroke-width="1" fill="none" fill-rule="evenodd">
        <rect fill="#393939" x="0" y="0" width="24" height="24"></rect>
        <path d="M12.9145784,3.7945157 C13.0827723,3.7945157 13.2448606,3.85754195 13.368874,3.97116349 L20.5824865,10.5803035 C20.9932584,10.9566543 21.0211622,11.5947432 20.6448114,12.0055151 C20.6249544,12.0271882 20.6041596,12.047983 20.5824865,12.06784 L13.368874,18.67698 C13.0950261,18.9278805 12.6696334,18.909278 12.4187329,18.63543 C12.3051114,18.5114167 12.2420851,18.3493283 12.2420851,18.1811345 L12.2422429,15.0258538 C11.608115,14.6083086 10.3564982,14.6516085 8.4873924,15.1557533 C6.85051398,15.5972606 5.34674008,16.6127513 3.97671907,18.2027839 C3.86753854,18.3294846 3.70247467,18.3935587 3.53640469,18.3737041 C3.26084489,18.3407595 3.06416644,18.0906672 3.09711108,17.8151074 L3.12444401,17.5982518 C3.49263938,14.793848 4.38758976,12.5664822 5.80929513,10.9161544 C7.38210297,9.09042557 9.52629721,8.07439142 12.2418778,7.86805196 L12.2420851,4.46700898 C12.2420851,4.0956012 12.5431706,3.7945157 12.9145784,3.7945157 Z" id="Path" fill="#FFFFFF"></path>
    </g>
</svg>