<?xml version="1.0" encoding="UTF-8"?>
<svg width="24px" height="24px" viewBox="0 0 24 24" version="1.1" xmlns="http://www.w3.org/2000/svg" xmlns:xlink="http://www.w3.org/1999/xlink">
    <title>Icon / Story</title>
    <g id="Icon-/-Story" stroke="none" stroke-width="1" fill="none" fill-rule="evenodd">
        <rect fill="#393939" x="0" y="0" width="24" height="24"></rect>
        <path d="M11.8903134,2.19855967 C12.3914607,2.19855967 12.7977208,2.60481981 12.7977208,3.10596708 C12.7977208,3.60711435 12.3914607,4.01337449 11.8903134,4.01337449 C7.43856516,4.01337449 3.83333333,7.58307087 3.83333333,11.9819959 C3.83333333,16.3809209 7.43856516,19.9506173 11.8903134,19.9506173 C12.3914607,19.9506173 12.7977208,20.3568774 12.7977208,20.8580247 C12.7977208,21.359172 12.3914607,21.7654321 11.8903134,21.7654321 C6.44027265,21.7654321 2.01851852,17.3872616 2.01851852,11.9819959 C2.01851852,6.5767302 6.44027265,2.19855967 11.8903134,2.19855967 Z" id="Path" fill="#FFFFFF" fill-rule="nonzero"></path>
        <path d="M18.3021183,18.2151374 C18.6416266,18.6311212 18.579631,19.2435684 18.1636473,19.5830767 C18.0561132,19.6708414 17.9465688,19.7565624 17.8350381,19.8402045 C17.3612395,20.1955131 16.8612764,20.5060272 16.3398333,20.7699427 C15.860756,21.0124159 15.2758238,20.8206103 15.0333506,20.341533 C14.7908774,19.8624556 14.982683,19.2775234 15.4617604,19.0350502 C15.8821159,18.8222977 16.2855285,18.5717485 16.6684406,18.2845971 C16.7586688,18.2169308 16.8472572,18.1476084 16.934179,18.0766664 C17.3501628,17.7371581 17.96261,17.7991537 18.3021183,18.2151374 Z M20.8446049,12.8557146 C21.3692521,12.9699672 21.7019426,13.4878978 21.58769,14.012545 C21.4318934,14.7279619 21.1969791,15.4249126 20.8868059,16.0899011 C20.6598333,16.5765137 20.0813583,16.7869935 19.5947457,16.5600209 C19.1081332,16.3330483 18.8976534,15.7545733 19.124626,15.2679607 C19.3738186,14.7337101 19.5625829,14.1736784 19.6877745,13.5987997 C19.8020271,13.0741526 20.3199577,12.741462 20.8446049,12.8557146 Z M20.764265,7.50843902 C21.0977777,8.16636501 21.3536962,8.85678343 21.5294016,9.56796289 C21.6581876,10.089233 21.3400165,10.6162076 20.8187464,10.7449936 C20.2974763,10.8737797 19.7705017,10.5556085 19.6417157,10.0343384 C19.5012184,9.4656661 19.2966435,8.91376288 19.0299248,8.38760244 C18.7871505,7.90867762 18.9785883,7.32362491 19.4575132,7.08085063 C19.936438,6.83807636 20.5214907,7.0295142 20.764265,7.50843902 Z M16.0522918,3.00123221 C16.7205997,3.30311297 17.3533402,3.67867685 17.9389129,4.12267239 C18.3667727,4.44708619 18.4506323,5.05692445 18.1262185,5.48478425 C17.8018047,5.91264406 17.1919664,5.99650362 16.7641066,5.67208982 C16.2950307,5.31642496 15.7879195,5.01542854 15.2518427,4.77327777 C14.7625058,4.55223986 14.5450065,3.97636732 14.7660444,3.48703045 C14.9870824,2.99769358 15.5629549,2.7801943 16.0522918,3.00123221 Z" id="Shape" fill="#FFFFFF" fill-rule="nonzero"></path>
        <path d="M12,7.51157407 C12.5100963,7.51157407 12.9236111,7.92508885 12.9236111,8.43518519 L12.9236111,15.5648148 C12.9236111,16.0749111 12.5100963,16.4884259 12,16.4884259 C11.4899037,16.4884259 11.0763889,16.0749111 11.0763889,15.5648148 L11.0763889,8.43518519 C11.0763889,7.92508885 11.4899037,7.51157407 12,7.51157407 Z" id="Path" fill="#FFFFFF" fill-rule="nonzero"></path>
        <path d="M16.4884259,12 C16.4884259,11.4899037 16.0749111,11.0763889 15.5648148,11.0763889 L8.43518519,11.0763889 C7.92508885,11.0763889 7.51157407,11.4899037 7.51157407,12 C7.51157407,12.5100963 7.92508885,12.9236111 8.43518519,12.9236111 L15.5648148,12.9236111 C16.0749111,12.9236111 16.4884259,12.5100963 16.4884259,12 Z" id="Path" fill="#FFFFFF" fill-rule="nonzero"></path>
    </g>
</svg>