<?xml version="1.0" encoding="UTF-8"?>
<svg width="24px" height="24px" viewBox="0 0 24 24" version="1.1" xmlns="http://www.w3.org/2000/svg" xmlns:xlink="http://www.w3.org/1999/xlink">
    <title>Icon / Video</title>
    <g id="Icon-/-Video" stroke="none" stroke-width="1" fill="none" fill-rule="evenodd">
        <rect fill="#393939" x="0" y="0" width="24" height="24"></rect>
        <path d="M4.97491029,4.87037037 L11.8954601,4.87037037 C13.7430076,4.87037037 15.2407407,6.36810354 15.2407407,8.21565104 L15.2407407,15.784349 C15.2407407,17.6318965 13.7430076,19.1296296 11.8954601,19.1296296 L4.97491029,19.1296296 C3.1273628,19.1296296 1.62962963,17.6318965 1.62962963,15.784349 L1.62962963,8.21565104 C1.62962963,6.36810354 3.1273628,4.87037037 4.97491029,4.87037037 Z M17.5679608,8.69739201 L20.1497346,6.63998648 C20.7406155,6.16911571 21.6013354,6.2664032 22.0722062,6.85728418 C22.2652501,7.09952896 22.3703704,7.40011559 22.3703704,7.70987113 L22.3703704,16.477096 C22.3703704,17.2326485 21.757874,17.8451448 21.0023215,17.8451448 C20.7180258,17.8451448 20.4407922,17.756575 20.2091555,17.5917463 L17.6868027,15.7968835 C16.9654377,15.2835725 16.537037,14.4529391 16.537037,13.5675828 L16.537037,10.8371613 C16.537037,10.0041607 16.9165115,9.2165295 17.5679608,8.69739201 Z" id="Shape" fill="#FFFFFF"></path>
    </g>
</svg>